<?xml version="1.0" ?><!DOCTYPE svg  PUBLIC '-//W3C//DTD SVG 1.1//EN'  'http://www.w3.org/Graphics/SVG/1.1/DTD/svg11.dtd'><svg height="100%" style="fill-rule:evenodd;clip-rule:evenodd;stroke-linejoin:round;stroke-miterlimit:2;" version="1.1" viewBox="0 0 24 24" width="100%" xml:space="preserve" xmlns="http://www.w3.org/2000/svg" xmlns:serif="http://www.serif.com/" xmlns:xlink="http://www.w3.org/1999/xlink"><g id="Icon"><path d="M15.52,7.576c-0,0 2.393,1.994 4.156,3.464c0.285,0.237 0.45,0.589 0.45,0.96c-0,0.371 -0.165,0.723 -0.45,0.96c-1.763,1.47 -4.156,3.464 -4.156,3.464c-0.318,0.265 -0.361,0.738 -0.096,1.056c0.265,0.318 0.738,0.361 1.056,0.096c0,0 2.393,-1.994 4.156,-3.463c0.627,-0.523 0.99,-1.297 0.99,-2.113c-0,-0.816 -0.363,-1.59 -0.99,-2.113c-1.763,-1.469 -4.156,-3.463 -4.156,-3.463c-0.318,-0.265 -0.791,-0.222 -1.056,0.096c-0.265,0.318 -0.222,0.791 0.096,1.056Z"/><path d="M7.52,6.424c-0,-0 -2.393,1.994 -4.156,3.463c-0.627,0.523 -0.99,1.297 -0.99,2.113c0,0.816 0.363,1.59 0.99,2.113c1.763,1.469 4.156,3.463 4.156,3.463c0.318,0.265 0.791,0.222 1.056,-0.096c0.265,-0.318 0.222,-0.791 -0.096,-1.056c0,-0 -2.393,-1.994 -4.156,-3.464c-0.285,-0.237 -0.45,-0.589 -0.45,-0.96c0,-0.371 0.165,-0.723 0.45,-0.96c1.763,-1.47 4.156,-3.464 4.156,-3.464c0.318,-0.265 0.361,-0.738 0.096,-1.056c-0.265,-0.318 -0.738,-0.361 -1.056,-0.096Z"/><path d="M14.288,2.763l-6,18c-0.13,0.393 0.082,0.818 0.475,0.949c0.393,0.13 0.818,-0.082 0.949,-0.475l6,-18c0.13,-0.393 -0.082,-0.818 -0.475,-0.949c-0.393,-0.13 -0.818,0.082 -0.949,0.475Z"/></g></svg>